<?xml version="1.0"?>
<svg xmlns="http://www.w3.org/2000/svg" id="Layer_1_1_" enable-background="new 0 0 64 64" height="512px" viewBox="0 0 64 64" width="512px" class=""><g><path d="m61 2h-58c-.55225 0-1 .44727-1 1v6c0 .55273.44775 1 1 1h2v42h-2c-.55225 0-1 .44727-1 1v4c0 .55273.44775 1 1 1h24v1c0 1.6543 1.3457 3 3 3h4c1.6543 0 3-1.3457 3-3v-1h24c.55225 0 1-.44727 1-1v-4c0-.55273-.44775-1-1-1h-2v-42h2c.55225 0 1-.44727 1-1v-6c0-.55273-.44775-1-1-1zm-26 57c0 .55176-.44873 1-1 1h-4c-.55127 0-1-.44824-1-1v-1h6zm25-3h-56v-2h2 52 2zm-3-4h-50v-42h50zm3-44h-2-52-2v-4h56z" data-original="#000000" class="active-path" data-old_color="#000000" fill="#2DB1E1"/><path d="m49 39c0 .39069.08032.76178.2168 1.10437l-3.75647 3.29132c-.43408-.24451-.92755-.39569-1.46033-.39569-.61407 0-1.18469.18671-1.66064.50452l-3.48883-2.61639c.08837-.28248.14947-.57691.14947-.88813 0-1.6543-1.3457-3-3-3s-3 1.3457-3 3c0 .39069.08032.76178.2168 1.10437l-3.75647 3.29132c-.43408-.24451-.92755-.39569-1.46033-.39569-1.30194 0-2.40161.8385-2.81573 2h-8.18427v2h8.18433c.41412 1.1615 1.51373 2 2.81567 2 1.6543 0 3-1.3457 3-3 0-.39069-.08026-.76184-.21674-1.10443l3.75641-3.29126c.43408.24451.92755.39569 1.46033.39569.61407 0 1.18469-.18671 1.66064-.50452l3.48883 2.61639c-.08837.28248-.14947.57691-.14947.88813 0 1.6543 1.3457 3 3 3s3-1.3457 3-3c0-.39069-.08026-.76184-.21674-1.10443l3.75641-3.29126c.43408.24451.92755.39569 1.46033.39569 1.6543 0 3-1.3457 3-3s-1.3457-3-3-3-3 1.3457-3 3zm-21 9c-.55127 0-1-.44824-1-1s.44873-1 1-1 1 .44824 1 1-.44873 1-1 1zm8-7c-.55127 0-1-.44824-1-1s.44873-1 1-1 1 .44824 1 1-.44873 1-1 1zm8 6c-.55127 0-1-.44824-1-1s.44873-1 1-1 1 .44824 1 1-.44873 1-1 1zm9-8c0 .55176-.44873 1-1 1s-1-.44824-1-1 .44873-1 1-1 1 .44824 1 1z" data-original="#000000" class="active-path" data-old_color="#000000" fill="#2DB1E1"/><path d="m20 30c3.85986 0 7-3.14062 7-7s-3.14014-7-7-7-7 3.14062-7 7 3.14014 7 7 7zm1-11.89893c.63715.12988 1.22852.38434 1.75293.73193l-1.75293 1.75294zm-2 0v4.89893c0 .4043.24365.76953.61719.92383.12402.05176.2539.07617.38281.07617.26025 0 .51562-.10156.70703-.29297l3.45996-3.45996c.52399.79053.83301 1.7356.83301 2.75293 0 2.75684-2.24316 5-5 5s-5-2.24316-5-5c0-2.41443 1.7207-4.43427 4-4.89893z" data-original="#000000" class="active-path" data-old_color="#000000" fill="#2DB1E1"/><path d="m20 34c6.06543 0 11-4.93457 11-11s-4.93457-11-11-11v2c4.9624 0 9 4.03711 9 9s-4.0376 9-9 9-9-4.03711-9-9h-2c0 6.06543 4.93457 11 11 11z" data-original="#000000" class="active-path" data-old_color="#000000" fill="#2DB1E1"/><path d="m39 32h4 4 4 3v-2h-2v-16c0-.55273-.44775-1-1-1h-4c-.55225 0-1 .44727-1 1v7h-2v-2c0-.55273-.44775-1-1-1h-4c-.55225 0-1 .44727-1 1v5h-3c-.55225 0-1 .44727-1 1v5h-2v2h3zm9-17h2v15h-2v-8zm-2 8v7h-2v-7zm-6-3h2v2 8h-2v-5zm-4 6h2v4h-2z" data-original="#000000" class="active-path" data-old_color="#000000" fill="#2DB1E1"/><path d="m13 46h2v2h-2z" data-original="#000000" class="active-path" data-old_color="#000000" fill="#2DB1E1"/><path d="m9 46h2v2h-2z" data-original="#000000" class="active-path" data-old_color="#000000" fill="#2DB1E1"/></g> </svg>
