<?xml version="1.0"?>
<svg xmlns="http://www.w3.org/2000/svg" id="Capa_1" enable-background="new 0 0 512 512" height="512px" viewBox="0 0 512 512" width="512px"><g><g><g><path d="m496.339 437.173-61.672-61.509c6.278-14.569 9.582-30.397 9.582-46.735 0-22.693-6.36-44.41-18.238-63.125v-244.381c.001-11.812-9.608-21.423-21.419-21.423h-380.307c-11.827 0-21.449 9.611-21.449 21.423v304.119c0 11.813 9.622 21.423 21.449 21.423h184.26c3.772 24.752 15.287 47.585 33.361 65.619 23.106 23.055 53.457 34.583 83.809 34.583 15.955 0 31.907-3.19 46.809-9.561l43.444 43.33c.062.066.116.136.181.2.071.071.148.131.22.199l17.884 17.837c8.554 8.553 19.793 12.828 31.037 12.828 11.24 0 22.486-4.274 31.051-12.82 8.269-8.251 12.823-19.261 12.823-31.003 0-11.741-4.553-22.751-12.825-31.004zm-289.135-110.207h-182.919c-.772 0-1.449-.665-1.449-1.423v-304.12c0-.772.664-1.424 1.449-1.424h380.307c.757 0 1.421.666 1.421 1.424v220.5c-9.703-8.927-20.546-15.939-32.045-21.038v-146.484c0-12.391-10.081-22.472-22.472-22.472h-62.413c-5.522 0-10 4.477-10 10s4.477 10 10 10h62.413c1.34 0 2.473 1.132 2.473 2.472v111.424l-49.859-39.46c-16.224-12.893-41.246-13.131-56.96-.542l-28.521 22.846-57.084-36.827c-17.577-11.322-45.218-14.988-64.037-.084l-22.628 17.917v-75.274c0-1.34 1.145-2.472 2.5-2.472h121.703c5.523 0 10-4.477 10-10s-4.477-10-10-10h-121.703c-12.406 0-22.499 10.081-22.499 22.472v154.795c0 12.391 10.093 22.472 22.499 22.472h158.567c-18.186 20.979-28.29 47.35-28.743 75.298zm29.143-146.866 23.305-18.669c8.295-6.644 23.257-6.369 32.03.604l62.285 49.295v2.746c-20.534-4.994-42.154-4.453-62.454 1.615zm32.725 44.912c-3.705 2.009-7.327 4.224-10.843 6.656h-180.849c-1.355 0-2.5-1.132-2.5-2.472v-54.009l35.043-27.751c9.948-7.877 27.485-7.352 40.785 1.215l62.868 40.559c.099.069.202.131.303.196zm-13.04 173.414c-16.803-16.765-26.785-38.519-28.563-61.913-.011-.236-.022-.471-.049-.703-.157-2.28-.241-4.574-.241-6.88 0-26.251 10.247-50.933 28.853-69.497 19.212-19.169 44.448-28.754 69.683-28.754s50.471 9.585 69.683 28.754c4.504 4.494 8.513 9.349 12.01 14.495.195.329.408.646.638.949 10.542 15.908 16.205 34.546 16.205 54.053 0 15.453-3.555 30.361-10.271 43.799-.1.172-.21.337-.301.516-.304.601-.603 1.205-.899 1.809-4.538 8.498-10.365 16.371-17.382 23.373-38.423 38.338-100.942 38.338-139.366-.001zm167.205 61.512-32.301-32.216c6.574-4.325 12.808-9.371 18.588-15.138 5.749-5.736 10.83-11.961 15.214-18.576l32.294 32.209zm58.978 25.085c-9.338 9.316-24.509 9.319-33.829-.002l-10.988-10.959 33.796-33.721 11.021 10.992c4.482 4.472 6.95 10.454 6.95 16.845 0 6.39-2.468 12.373-6.95 16.845z" data-original="#000000" class="active-path" data-old_color="#000000" fill="#2DB1E1"/><path d="m379.098 275.633c-29.419-29.353-77.312-29.355-106.763-.004-.002.003-.005.005-.008.008-14.256 14.241-22.109 33.168-22.109 53.293s7.852 39.051 22.117 53.3c14.725 14.676 34.056 22.012 53.388 22.012s38.667-7.341 53.378-22.02c14.257-14.241 22.109-33.168 22.109-53.293.001-20.124-7.85-39.051-22.112-53.296zm-14.126 92.435c-21.634 21.587-56.858 21.584-78.51.004-10.475-10.463-16.244-24.364-16.244-39.143 0-14.775 5.765-28.673 16.236-39.135 21.662-21.589 56.885-21.589 78.514-.008 10.475 10.463 16.244 24.364 16.244 39.143s-5.769 28.681-16.24 39.139z" data-original="#000000" class="active-path" data-old_color="#000000" fill="#2DB1E1"/><path d="m174.339 279.317h-63.55c-5.523 0-10 4.477-10 10s4.477 10 10 10h63.55c5.523 0 10-4.477 10-10s-4.477-10-10-10z" data-original="#000000" class="active-path" data-old_color="#000000" fill="#2DB1E1"/><path d="m244.082 71.929h.057c5.523 0 9.971-4.477 9.971-10s-4.506-10-10.029-10-10 4.477-10 10 4.479 10 10.001 10z" data-original="#000000" class="active-path" data-old_color="#000000" fill="#2DB1E1"/></g></g></g> </svg>
