<?xml version="1.0"?>
<svg xmlns="http://www.w3.org/2000/svg" height="512px" viewBox="0 0 192 192" width="512px" class=""><g transform="matrix(-1 0 0 1 192 0)"><path d="m144 90.472 41.9-11.954a8.081 8.081 0 0 0 5.5-9.888l-17.555-61.545a8 8 0 0 0 -9.888-5.5l-115.395 32.924a8.078 8.078 0 0 0 -4.239 12.449l40.637 54.96a8.065 8.065 0 0 0 8.627 2.936l34.413-9.817v64.963a8 8 0 0 0 8 8h16v-16h-8zm19.851-34.835a8 8 0 1 1 -5.5 9.888 8 8 0 0 1 5.5-9.888zm-30.772 8.779a8 8 0 1 1 -5.5 9.888 8 8 0 0 1 5.5-9.888z" data-original="#000000" class="active-path" data-old_color="#000000" fill="#3A94B5"/><path d="m188.206 129.2a8 8 0 0 0 -7.784-.35l-16 8a8 8 0 0 0 -4.422 7.15v32a8 8 0 0 0 4.422 7.155l16 8a8.077 8.077 0 0 0 11.578-7.155v-48a8 8 0 0 0 -3.794-6.8z" data-original="#000000" class="active-path" data-old_color="#000000" fill="#3A94B5"/><path d="m35.372 46.591a8 8 0 0 0 -5.5 9.888l10.973 38.465a8.079 8.079 0 0 0 9.887 5.5l19.149-5.464-31.99-43.266a15.976 15.976 0 0 1 -2.519-5.123z" data-original="#000000" class="active-path" data-old_color="#000000" fill="#3A94B5"/><path d="m22.178 58.674-7.694 2.2a8.08 8.08 0 0 0 -5.5 9.887l6.585 23.079a8.074 8.074 0 0 0 9.889 5.5l7.691-2.194z" data-original="#000000" class="active-path" data-old_color="#000000" fill="#3A94B5"/></g> </svg>
